PathFileType	4	(X/Y/Z)	..\data\2015035\dynamic\2015035_C4_03.trc
DataRate	CameraRate	NumFrames	NumMarkers	Units	OrigDataRate	OrigDataStartFrame	OrigNumFrames
100.000000	100.000000	4	52	mm	100.000000	134	179
Frame#	Time	L_IAS			L_IPS			R_IPS			R_IAS			L_FTC			L_FLE			L_FME			L_FAX			L_TTC			L_FAL			L_TAM			L_FCC			L_FM1			L_FM2			L_FM5			R_FTC			R_FLE			R_FME			R_FAX			R_TTC			R_FAL			R_TAM			R_FCC			R_FM1			R_FM2			R_FM5			CV7			TV10			SXS			SJN			L_SIA			L_SRS			L_SAA			L_SAE			L_HLE			L_HME			L_UOA			L_RSP			L_UHE			L_HM2			L_HM5			R_SIA			R_SRS			R_SAA			R_SAE			R_HLE			R_HME			R_UOA			R_RSP			R_UHE			R_HM2			R_HM5			
		X1	Y1	Z1	X2	Y2	Z2	X3	Y3	Z3	X4	Y4	Z4	X5	Y5	Z5	X6	Y6	Z6	X7	Y7	Z7	X8	Y8	Z8	X9	Y9	Z9	X10	Y10	Z10	X11	Y11	Z11	X12	Y12	Z12	X13	Y13	Z13	X14	Y14	Z14	X15	Y15	Z15	X16	Y16	Z16	X17	Y17	Z17	X18	Y18	Z18	X19	Y19	Z19	X20	Y20	Z20	X21	Y21	Z21	X22	Y22	Z22	X23	Y23	Z23	X24	Y24	Z24	X25	Y25	Z25	X26	Y26	Z26	X27	Y27	Z27	X28	Y28	Z28	X29	Y29	Z29	X30	Y30	Z30	X31	Y31	Z31	X32	Y32	Z32	X33	Y33	Z33	X34	Y34	Z34	X35	Y35	Z35	X36	Y36	Z36	X37	Y37	Z37	X38	Y38	Z38	X39	Y39	Z39	X40	Y40	Z40	X41	Y41	Z41	X42	Y42	Z42	X43	Y43	Z43	X44	Y44	Z44	X45	Y45	Z45	X46	Y46	Z46	X47	Y47	Z47	X48	Y48	Z48	X49	Y49	Z49	X50	Y50	Z50	X51	Y51	Z51	X52	Y52	Z52	

135	1.34	1322.927001953125	968.8401489257815	-358.2743835449219	1126.49560546875	978.983581542969	-266.2808532714844	1129.128295898438	964.658630371094	-182.9228668212891	1314.121215820313	948.7310791015627	-91.39083099365236	1241.490966796875	899.973571777344	-413.5884094238282	1355.8486328125	469.0607299804689	-373.3680419921876	1329.140014648438	480.9460449218751	-237.7507629394532	1349.299560546875	417.5306701660157	-375.3348388671876	1408.81494140625	401.5944213867189	-313.6594543457032	1330.957275390625	56.66779708862306	-326.0454101562501	1351.162719726563	76.62741851806642	-231.4306182861329	1284.833984375	18.40580940246582	-275.1065368652344	1479.046508789063	22.59207534790039	-236.9403533935547	1484.88427734375	34.78772354125977	-297.8173522949219	1441.869750976563	15.16751766204834	-349.7485961914063	1229.407470703125	850.5882568359377	-45.94953536987305	1228.94873046875	445.431610107422	-49.05049896240236	1262.350952148438	432.6711425781251	-174.8348541259766	1190.906127929688	423.428436279297	-51.27794265747072	1233.28173828125	360.4616088867188	-88.19066619873048	908.844665527344	205.5424499511719	-83.29422760009767	959.176696777344	176.7320556640625	-160.8144989013672	866.7935180664065	210.054672241211	-137.6092529296875	942.9478149414065	49.65059280395509	-164.3094482421875	950.7514648437502	49.2833595275879	-109.1821441650391	906.1151123046877	73.64596557617189	-63.39397048950197	1145.320068359375	1483.124633789063	-241.1733703613282	1095.686645507813	1191.206420898438	-216.5805816650391	1338.487548828125	1226.52880859375	-241.3950805664063	1283.517333984375	1394.825073242188	-247.0554962158204	1070.787353515625	1261.152099609375	-334.4722290039063	1099.066650390625	1410.440551757813	-326.1948242187501	1162.37841796875	1397.802368164063	-425.735809326172	1210.746337890625	1397.443115234375	-437.604705810547	1179.74658203125	1087.23876953125	-503.6359252929689	1142.207763671875	1074.793579101563	-418.1719360351564	1135.315551757813	1059.371826171875	-471.1065979003907	1289.964721679688	838.0767822265627	-459.9792785644532	1239.928466796875	832.0708007812502	-519.5902709960939	1323.927368164063	755.0121459960939	-461.8150634765626	1234.244384765625	751.7782592773439	-519.5425415039064	1098.942260742188	1272.002075195313	-90.82067108154298	1122.001953125	1420.224853515625	-131.6453094482422	1205.30224609375	1412.443969726563	-38.3713493347168	1258.38525390625	1410.85986328125	-36.75947570800782	1244.900512695313	1114.13232421875	60.0022430419922	1184.0439453125	1101.615112304688	-11.98162651062012	1197.0439453125	1083.292358398438	49.6276092529297	1374.35595703125	877.1206054687502	-0.3619182109832764	1331.88623046875	865.1062622070315	65.3885955810547	1413.346435546875	793.5025634765627	-1.939155220985413	1336.708740234375	797.3577880859377	72.57803344726564	
136	1.35	1333.822143554688	969.8145141601565	-359.2334899902344	1137.39013671875	980.6315917968752	-267.7136535644532	1139.541259765625	966.0647583007815	-184.4220733642578	1324.366821289063	950.275329589844	-92.15853881835939	1251.763549804688	901.2722778320315	-414.6221618652345	1359.5966796875	468.8043823242189	-374.0617065429688	1333.081176757813	481.177947998047	-238.3777465820313	1352.23583984375	417.3111572265626	-375.7411804199219	1411.98779296875	400.8283691406251	-314.4748229980469	1330.855102539063	56.5984344482422	-325.9816894531251	1351.135375976563	76.59590911865236	-231.3905181884766	1284.806884765625	18.34408187866211	-275.0832519531251	1478.926513671875	22.61283493041993	-236.8393554687501	1484.833984375	34.73937606811524	-297.6994934082032	1441.8037109375	15.20736980438233	-349.7041931152344	1240.291259765625	851.8865966796877	-47.52797317504884	1252.09619140625	447.0670166015626	-48.56993484497072	1286.428833007813	434.5180664062501	-174.4423217773438	1214.3515625	425.4861755371095	-50.78108215332033	1256.939331054688	362.1276245117188	-87.79696655273439	930.979675292969	210.2032012939454	-83.58116149902345	981.285827636719	180.8697052001953	-160.9410858154297	888.736511230469	214.4019012451172	-137.9133911132813	965.3260498046877	53.37876129150392	-162.2743225097657	973.1016235351565	53.06755828857423	-107.3530426025391	928.1324462890627	79.08911895751955	-62.2811737060547	1156.289306640625	1484.68212890625	-242.8362121582032	1106.611572265625	1192.736206054688	-218.3126678466797	1349.2861328125	1227.893798828125	-241.9552612304688	1294.431884765625	1396.295532226563	-247.8981323242188	1082.699462890625	1262.794677734375	-337.1522521972657	1110.780639648438	1411.816650390625	-328.3408203125001	1175.2802734375	1399.087646484375	-427.6610412597657	1223.533203125	1398.854614257813	-438.8194580078126	1197.017822265625	1088.524291992188	-505.7449035644532	1158.080200195313	1075.507568359375	-420.9630432128907	1152.466796875	1059.9892578125	-473.9369506835939	1310.484008789063	841.0359497070315	-460.6394348144532	1261.262817382813	834.209655761719	-520.8625488281251	1346.038940429688	758.7233886718751	-462.3228149414064	1257.03955078125	753.8450317382814	-520.9728393554689	1108.772338867188	1273.482788085938	-93.04152679443361	1132.382690429688	1421.804931640625	-133.4490966796875	1215.1357421875	1414.05712890625	-39.62188720703126	1268.149658203125	1412.320434570313	-37.69179916381837	1253.06787109375	1115.374389648438	58.65781021118165	1191.54296875	1103.66796875	-12.87975120544434	1204.786254882813	1085.385131835938	48.7210159301758	1378.706909179688	876.5241699218752	-1.218597292900086	1336.783935546875	865.424499511719	65.07196044921876	1415.9013671875	791.9671630859377	-2.982128143310547	1340.411865234375	797.6267700195315	72.58311462402345	
137	1.36	1344.5732421875	970.783142089844	-360.1471557617188	1148.067138671875	982.3438720703127	-269.1520385742188	1149.843994140625	967.6768188476565	-185.908447265625	1334.439819335938	952.076354980469	-92.85257720947267	1261.902099609375	902.4421386718752	-415.5393371582032	1363.106201171875	468.5808410644532	-374.6009826660157	1336.6357421875	481.365203857422	-238.8704223632813	1354.987060546875	417.134002685547	-376.0518493652344	1414.858764648438	400.1222534179689	-315.0792846679688	1330.77294921875	56.53306961059572	-325.9331054687501	1351.120361328125	76.5720672607422	-231.3408508300782	1284.784057617188	18.32950401306153	-275.0850524902344	1478.801513671875	22.52853584289551	-236.7315673828126	1484.77294921875	34.61117553710938	-297.5547180175782	1441.748046875	15.16725635528565	-349.6269226074219	1251.013916015625	853.5693359375002	-48.93247604370119	1275.18896484375	449.2763061523439	-48.32225418090822	1310.180419921875	437.083709716797	-174.1814880371094	1237.4658203125	428.0335083007814	-50.57116317749025	1280.615478515625	364.3923950195313	-87.61660766601564	953.7329711914065	214.0119934082032	-84.16078186035158	1004.211059570313	184.4205474853516	-161.2925872802735	911.330505371094	217.3648681640626	-138.5470123291016	989.986267089844	56.56013107299806	-160.0409393310547	997.8027343750002	56.76530838012697	-105.2982330322266	952.124450683594	83.95884704589845	-60.9967498779297	1167.11962890625	1486.324829101563	-244.3763122558594	1117.349975585938	1194.343139648438	-220.0150909423829	1359.923217773438	1229.336181640625	-242.4483184814454	1305.195678710938	1397.837524414063	-248.6275939941407	1094.421020507813	1264.613647460938	-339.7975463867188	1122.338134765625	1413.344848632813	-330.3903808593751	1188.072143554688	1400.553344726563	-429.485565185547	1236.208618164063	1400.451171875	-439.8958129882814	1214.443115234375	1090.057006835938	-507.7015686035157	1174.040771484375	1076.459716796875	-423.6746520996095	1169.752807617188	1060.863403320313	-476.6791992187501	1331.119384765625	844.3002929687502	-461.2531127929689	1282.76171875	836.7161865234377	-522.1069335937501	1368.2470703125	762.7529907226564	-462.807098388672	1280.005004882813	756.3087768554689	-522.4368286132814	1118.426879882813	1275.048828125	-95.20452880859376	1142.5771484375	1423.431274414063	-135.1796112060547	1224.792358398438	1415.7109375	-40.77730178833009	1277.688842773438	1413.82275390625	-38.50684356689454	1260.968017578125	1116.69091796875	57.37861633300783	1199.044311523438	1105.714233398438	-13.92490005493164	1212.331420898438	1087.458374023438	47.68060302734376	1383.191040039063	876.1892700195315	-1.930944919586182	1341.656127929688	865.9163208007815	64.7717971801758	1418.732177734375	790.8001098632815	-3.778115034103394	1344.205322265625	798.0858154296877	72.58292388916017	
138	1.37	1355.19091796875	971.7825317382815	-361.0466003417969	1158.531372070313	984.091003417969	-270.5679931640626	1160.076171875	969.4541625976565	-187.346908569336	1344.397094726563	954.117370605469	-93.52478790283205	1271.93017578125	903.4858398437502	-416.3502502441407	1366.434936523438	468.4052734375001	-374.9829406738282	1339.855224609375	481.5240173339845	-239.2186584472657	1357.613403320313	417.013153076172	-376.2633056640626	1417.478149414063	399.4883117675782	-315.4541015625001	1330.729248046875	56.48908996582033	-325.8898925781251	1351.137573242188	76.56993865966798	-231.2702026367188	1284.782592773438	18.37924575805664	-275.1078491210938	1478.68896484375	22.35400772094727	-236.6187591552735	1484.730224609375	34.41893386840821	-297.3963012695313	1441.711303710938	15.07357978820801	-349.5312194824219	1261.677001953125	855.5784301757815	-50.1197967529297	1298.157836914063	451.9934692382814	-48.29724121093751	1333.541625976563	440.2831420898439	-174.0308074951172	1260.179077148438	431.0007629394532	-50.63213348388673	1304.23046875	367.2076110839844	-87.59962463378908	977.0617675781252	216.8562927246094	-84.98498535156251	1027.915405273438	187.2514038085938	-161.8149108886719	934.5523681640627	218.8966064453126	-139.4673919677735	1016.663269042969	59.06024169921876	-157.6814422607422	1024.564208984375	60.19568634033205	-103.1027908325196	977.8779907226565	88.07284545898439	-59.59312820434572	1177.80908203125	1488.0283203125	-245.7967987060547	1127.915893554688	1196.003173828125	-221.6933746337891	1370.429809570313	1230.858276367188	-242.9040527343751	1315.818115234375	1399.44287109375	-249.2636108398438	1105.951171875	1266.582885742188	-342.3941650390626	1133.724609375	1415.0029296875	-332.3365173339844	1200.702758789063	1402.192016601563	-431.2002868652345	1248.737548828125	1402.229858398438	-440.843963623047	1231.988891601563	1091.837158203125	-509.4963989257814	1190.088500976563	1077.653442382813	-426.2792358398439	1187.150268554688	1061.990966796875	-479.3043212890626	1351.847534179688	847.873229980469	-461.8147277832032	1304.400024414063	839.5988769531252	-523.3142089843751	1390.51318359375	767.0936279296876	-463.250946044922	1303.104736328125	759.1804199218751	-523.9211425781251	1127.938232421875	1276.698486328125	-97.29557037353518	1152.609130859375	1425.084228515625	-136.83447265625	1234.305541992188	1417.402465820313	-41.85289764404298	1287.0380859375	1415.3662109375	-39.22663116455079	1268.594970703125	1118.090942382813	56.17055511474611	1206.547607421875	1107.76171875	-15.12990093231202	1219.672241210938	1089.510620117188	46.49832916259766	1387.838256835938	876.1087646484377	-2.485928535461426	1346.487670898438	866.5672607421877	64.47511291503908	1421.88671875	789.9967041015627	-4.304884433746339	1348.072509765625	798.7172851562502	72.55102539062501	
